<mxfile host="65bd71144e">
    <diagram id="oDjpuHA7A975ABiRR1b_" name="Page-1">
        <mxGraphModel dx="1647" dy="947" grid="0" gridSize="10" guides="1" tooltips="1" connect="1" arrows="1" fold="1" page="0" pageScale="1" pageWidth="850" pageHeight="1100" background="none" math="0" shadow="0" adaptiveColors="auto">
            <root>
                <mxCell id="0"/>
                <mxCell id="1" parent="0"/>
                <mxCell id="2" value="" style="strokeWidth=2;shadow=0;dashed=0;align=center;html=1;shape=mxgraph.mockup.containers.browserWindow;rSize=0;strokeColor=default;strokeColor2=#008cff;strokeColor3=#c4c4c4;mainText=,;recursiveResize=0;fillColor=none;gradientColor=#b3b3b3;" parent="1" vertex="1">
                    <mxGeometry x="229" y="76" width="346" height="294" as="geometry"/>
                </mxCell>
                <mxCell id="3" value="&lt;font style=&quot;font-size: 14px;&quot;&gt;Chatbot&lt;/font&gt;" style="strokeWidth=1;shadow=0;dashed=0;align=center;html=1;shape=mxgraph.mockup.containers.anchor;fontSize=17;fontColor=#666666;align=left;" parent="2" vertex="1">
                    <mxGeometry x="60" y="12" width="110" height="26" as="geometry"/>
                </mxCell>
                <mxCell id="4" value="&lt;font style=&quot;font-size: 12px;&quot;&gt;http://127.0.0.1:5000/&lt;/font&gt;" style="strokeWidth=1;shadow=0;dashed=0;align=center;html=1;shape=mxgraph.mockup.containers.anchor;rSize=0;fontSize=17;fontColor=#666666;align=left;" parent="2" vertex="1">
                    <mxGeometry x="130" y="60" width="111" height="15" as="geometry"/>
                </mxCell>
                <mxCell id="53" value="&lt;font style=&quot;font-size: 13px;&quot;&gt;Front-End (UI)&lt;/font&gt;" style="rounded=1;whiteSpace=wrap;html=1;strokeColor=#330000;strokeWidth=1;fontSize=17;fontColor=#330000;fillColor=none;" vertex="1" parent="2">
                    <mxGeometry x="133" y="156" width="144" height="39.5" as="geometry"/>
                </mxCell>
                <mxCell id="11" value="" style="shape=ext;double=1;rounded=0;whiteSpace=wrap;html=1;fontSize=14;fillColor=none;strokeWidth=1;strokeColor=#330000;" parent="1" vertex="1">
                    <mxGeometry x="667" y="66" width="486" height="301" as="geometry"/>
                </mxCell>
                <mxCell id="12" value="&lt;font style=&quot;font-size: 17px;&quot; color=&quot;#330000&quot;&gt;Flask App (App.py)&lt;br&gt;&lt;/font&gt;" style="text;html=1;strokeColor=#808080;fillColor=none;align=center;verticalAlign=middle;whiteSpace=wrap;rounded=1;strokeWidth=1;fontSize=14;" parent="1" vertex="1">
                    <mxGeometry x="668" y="68" width="484" height="46" as="geometry"/>
                </mxCell>
                <mxCell id="50" style="edgeStyle=none;html=1;exitX=1;exitY=0.5;exitDx=0;exitDy=0;entryX=0;entryY=0.5;entryDx=0;entryDy=0;startArrow=oval;startFill=1;" edge="1" parent="1" source="15" target="28">
                    <mxGeometry relative="1" as="geometry"/>
                </mxCell>
                <mxCell id="51" style="edgeStyle=none;html=1;exitX=1;exitY=0.5;exitDx=0;exitDy=0;entryX=0;entryY=0.5;entryDx=0;entryDy=0;" edge="1" parent="1" source="15" target="48">
                    <mxGeometry relative="1" as="geometry"/>
                </mxCell>
                <mxCell id="52" style="edgeStyle=none;html=1;exitX=1;exitY=0.5;exitDx=0;exitDy=0;entryX=0;entryY=0.5;entryDx=0;entryDy=0;" edge="1" parent="1" source="15" target="49">
                    <mxGeometry relative="1" as="geometry"/>
                </mxCell>
                <mxCell id="15" value="&lt;font style=&quot;font-size: 13px;&quot;&gt;get_chat_response()&lt;/font&gt;" style="rounded=1;whiteSpace=wrap;html=1;strokeColor=#330000;strokeWidth=1;fontSize=17;fontColor=#330000;fillColor=none;" parent="1" vertex="1">
                    <mxGeometry x="799.5" y="213" width="167" height="39.5" as="geometry"/>
                </mxCell>
                <mxCell id="17" value="&lt;font style=&quot;font-size: 13px;&quot;&gt;OLLAMA Local Host (LLM ENGINE)&lt;/font&gt;" style="rounded=1;whiteSpace=wrap;html=1;strokeColor=#330000;strokeWidth=1;fontSize=17;fontColor=#330000;fillColor=none;" parent="1" vertex="1">
                    <mxGeometry x="811" y="293" width="144" height="39.5" as="geometry"/>
                </mxCell>
                <mxCell id="20" value="" style="shape=singleArrow;direction=south;whiteSpace=wrap;html=1;strokeColor=#330000;strokeWidth=1;fontSize=13;fontColor=#330000;fillColor=none;rotation=90;" parent="1" vertex="1">
                    <mxGeometry x="600" y="207" width="37" height="63" as="geometry"/>
                </mxCell>
                <mxCell id="22" value="GET" style="text;html=1;strokeColor=none;fillColor=none;align=center;verticalAlign=middle;whiteSpace=wrap;rounded=0;strokeWidth=1;fontSize=13;fontColor=#330000;" parent="1" vertex="1">
                    <mxGeometry x="569" y="148" width="107" height="30" as="geometry"/>
                </mxCell>
                <mxCell id="23" value="" style="shape=singleArrow;direction=south;whiteSpace=wrap;html=1;strokeColor=#330000;strokeWidth=1;fontSize=13;fontColor=#330000;fillColor=none;rotation=-90;" parent="1" vertex="1">
                    <mxGeometry x="604" y="107" width="37" height="63" as="geometry"/>
                </mxCell>
                <mxCell id="24" value="POST" style="text;html=1;strokeColor=none;fillColor=none;align=center;verticalAlign=middle;whiteSpace=wrap;rounded=0;strokeWidth=1;fontSize=13;fontColor=#330000;" parent="1" vertex="1">
                    <mxGeometry x="577" y="254.5" width="107" height="30" as="geometry"/>
                </mxCell>
                <mxCell id="25" value="&lt;div style=&quot;font-family: Menlo, Monaco, &amp;quot;Courier New&amp;quot;, monospace; font-weight: normal; line-height: 18px;&quot;&gt;&lt;div style=&quot;&quot;&gt;&lt;font style=&quot;font-size: 6px;&quot;&gt;http://localhost:11434/api/chat&lt;/font&gt;&lt;/div&gt;&lt;/div&gt;" style="text;whiteSpace=wrap;html=1;fontSize=13;fontColor=#330000;" parent="1" vertex="1">
                    <mxGeometry x="826.5" y="324" width="118" height="29" as="geometry"/>
                </mxCell>
                <mxCell id="26" value="&lt;font style=&quot;font-size: 13px;&quot;&gt;index()&lt;/font&gt;" style="rounded=1;whiteSpace=wrap;html=1;strokeColor=#330000;strokeWidth=1;fontSize=17;fontColor=#330000;fillColor=none;" parent="1" vertex="1">
                    <mxGeometry x="687" y="124.5" width="80" height="28" as="geometry"/>
                </mxCell>
                <mxCell id="27" value="&lt;font style=&quot;font-size: 13px;&quot;&gt;chat()&lt;/font&gt;" style="rounded=1;whiteSpace=wrap;html=1;strokeColor=#330000;strokeWidth=1;fontSize=17;fontColor=#330000;fillColor=none;" parent="1" vertex="1">
                    <mxGeometry x="843" y="124.5" width="80" height="28" as="geometry"/>
                </mxCell>
                <mxCell id="28" value="&lt;font style=&quot;font-size: 13px;&quot;&gt;enrich_prompt()&lt;/font&gt;" style="rounded=1;whiteSpace=wrap;html=1;strokeColor=#330000;strokeWidth=1;fontSize=17;fontColor=#330000;fillColor=none;" parent="1" vertex="1">
                    <mxGeometry x="1008" y="148" width="123" height="39.5" as="geometry"/>
                </mxCell>
                <mxCell id="33" value="" style="endArrow=classic;html=1;fontSize=13;fontColor=#330000;strokeColor=#330000;exitX=1;exitY=0.5;exitDx=0;exitDy=0;entryX=0;entryY=0.5;entryDx=0;entryDy=0;startArrow=oval;startFill=1;" parent="1" source="26" target="27" edge="1">
                    <mxGeometry width="50" height="50" relative="1" as="geometry">
                        <mxPoint x="767" y="171" as="sourcePoint"/>
                        <mxPoint x="817" y="121" as="targetPoint"/>
                    </mxGeometry>
                </mxCell>
                <mxCell id="40" value="" style="endArrow=classic;html=1;fontSize=13;fontColor=#330000;strokeColor=#330000;exitX=0.5;exitY=0;exitDx=0;exitDy=0;entryX=0.5;entryY=1;entryDx=0;entryDy=0;startArrow=oval;startFill=1;" edge="1" parent="1" source="15" target="27">
                    <mxGeometry width="50" height="50" relative="1" as="geometry">
                        <mxPoint x="877" y="225.5" as="sourcePoint"/>
                        <mxPoint x="877" y="254.5" as="targetPoint"/>
                    </mxGeometry>
                </mxCell>
                <mxCell id="42" value="" style="endArrow=classic;html=1;fontSize=13;fontColor=#330000;strokeColor=#330000;entryX=0.5;entryY=0;entryDx=0;entryDy=0;startArrow=classic;startFill=1;exitX=0.5;exitY=1;exitDx=0;exitDy=0;" edge="1" parent="1" source="15" target="17">
                    <mxGeometry width="50" height="50" relative="1" as="geometry">
                        <mxPoint x="913.0008433734938" y="196" as="sourcePoint"/>
                        <mxPoint x="872.29" y="305" as="targetPoint"/>
                    </mxGeometry>
                </mxCell>
                <mxCell id="46" style="edgeStyle=none;html=1;exitX=0;exitY=0.5;exitDx=0;exitDy=0;entryX=0.005;entryY=0.558;entryDx=0;entryDy=0;entryPerimeter=0;" edge="1" parent="1" source="15" target="11">
                    <mxGeometry relative="1" as="geometry"/>
                </mxCell>
                <mxCell id="47" value="&amp;nbsp;response&amp;nbsp;" style="edgeLabel;html=1;align=center;verticalAlign=middle;resizable=0;points=[];" vertex="1" connectable="0" parent="46">
                    <mxGeometry x="-0.0477" y="1" relative="1" as="geometry">
                        <mxPoint as="offset"/>
                    </mxGeometry>
                </mxCell>
                <mxCell id="48" value="&lt;font style=&quot;font-size: 13px;&quot;&gt;chat_history()&lt;/font&gt;" style="rounded=1;whiteSpace=wrap;html=1;strokeColor=#330000;strokeWidth=1;fontSize=17;fontColor=#330000;fillColor=none;" vertex="1" parent="1">
                    <mxGeometry x="1011" y="201.75" width="123" height="39.5" as="geometry"/>
                </mxCell>
                <mxCell id="49" value="&lt;font style=&quot;font-size: 13px;&quot;&gt;export_data()&lt;/font&gt;" style="rounded=1;whiteSpace=wrap;html=1;strokeColor=#330000;strokeWidth=1;fontSize=17;fontColor=#330000;fillColor=none;" vertex="1" parent="1">
                    <mxGeometry x="1013" y="258" width="123" height="39.5" as="geometry"/>
                </mxCell>
            </root>
        </mxGraphModel>
    </diagram>
</mxfile>